<svg xmlns="http://www.w3.org/2000/svg" viewBox="0 0 64 64" role="img" aria-labelledby="title desc">
  <title id="title">SPQE Lab</title>
  <desc id="desc">A navy laboratory mark with blue signal nodes.</desc>
  <rect width="64" height="64" rx="16" fill="#f8fafc"/>
  <rect x="1" y="1" width="62" height="62" rx="15" fill="none" stroke="#dbe3ee" stroke-width="2"/>
  <path d="M21 14h22v6h-3v13.2l9.1 14.3A5 5 0 0 1 44.9 55H19.1a5 5 0 0 1-4.2-7.5L24 33.2V20h-3z" fill="#102a43"/>
  <path d="M20.4 47.7h23.2L36.8 37H27.2z" fill="#dceeff"/>
  <path d="M27 27h10v6l4.1 6.5H22.9L27 33z" fill="#2f80ed"/>
  <circle cx="25" cy="45" r="2.5" fill="#63a4ff"/>
  <circle cx="32" cy="42.5" r="2.5" fill="#fff"/>
  <circle cx="39" cy="46" r="2.5" fill="#63a4ff"/>
  <path d="M25 45l7-2.5 7 3.5" fill="none" stroke="#102a43" stroke-width="1.5" stroke-linecap="round"/>
</svg>
